<?xml version="1.0" encoding="UTF-8" standalone="no"?>
<svg
   xmlns:dc="http://purl.org/dc/elements/1.1/"
   xmlns:cc="http://creativecommons.org/ns#"
   xmlns:rdf="http://www.w3.org/1999/02/22-rdf-syntax-ns#"
   xmlns:svg="http://www.w3.org/2000/svg"
   xmlns="http://www.w3.org/2000/svg"
   xmlns:sodipodi="http://sodipodi.sourceforge.net/DTD/sodipodi-0.dtd"
   xmlns:inkscape="http://www.inkscape.org/namespaces/inkscape"
   version="1.1"
   id="svg2"
   xml:space="preserve"
   width="666.66669"
   height="666.66669"
   viewBox="0 0 666.66669 666.66669"
   sodipodi:docname="2407818.eps"><metadata
     id="metadata8"><rdf:RDF><cc:Work
         rdf:about=""><dc:format>image/svg+xml</dc:format><dc:type
           rdf:resource="http://purl.org/dc/dcmitype/StillImage" /></cc:Work></rdf:RDF></metadata><defs
     id="defs6"><clipPath
       clipPathUnits="userSpaceOnUse"
       id="clipPath16"><path
         d="M 0,0 V 2644 H 2644 V 0 Z"
         id="path14" /></clipPath><pattern
       patternTransform="matrix(10,0,0,10,0,2357)"
       patternUnits="userSpaceOnUse"
       x="0"
       y="0"
       width="264.302"
       height="264.302"
       id="pattern112"><g
         transform="scale(0.1)"
         id="g110"><g
           id="g108"><g
             clip-path="url(#clipPath16)"
             id="g106"><path
               d="M 2643.02,0 0,0 l 0,2643.02 2643.02,0 0,-2643.02"
               style="fill:#161a2c;fill-opacity:1;fill-rule:nonzero;stroke:none"
               id="path18" /><path
               d="m 2319.94,913.121 c -17.75,12.531 -35.63,12.688 -56.29,9.094 -13,-2.258 -28.38,-10.344 -41.53,-9.82 -28.62,1.136 -30.6,22.507 -37.84,44.097 -16.79,50.058 -46.18,56.228 -96.44,48.888 -12.9,-1.89 -29.77,-9.189 -42.87,-5.81 -28.97,7.46 -27.59,31.65 -34.25,54.04 -6.03,20.3 -13.45,40.63 -31.56,53.35 -46.35,32.53 -89.34,-13.41 -132.76,-25.42 -17.39,-4.8 -19.56,-33.56 0.04,-37.05 22.65,-4.03 38.87,1.33 60.33,9.48 16.85,6.41 31.34,19.23 48.82,1.13 7.34,-7.61 8.28,-26.94 11.73,-37.34 15.13,-45.576 43.17,-70.295 92.69,-66.436 37.24,2.903 64.32,24.16 82.05,-20.511 8.92,-22.461 11.56,-43.067 33.24,-58.122 41.38,-28.718 84.47,6.926 128.28,0.813 24.06,-3.352 37.06,24.992 16.36,39.617"
               style="fill:#f2b625;fill-opacity:1;fill-rule:nonzero;stroke:none"
               id="path20" /><path
               d="m 2238.38,769.199 c -15.48,13.938 -31.36,19.035 -52.19,17.789 -19.47,-1.168 -57.05,-22.672 -73.76,-7.57 -14.55,13.145 -11.67,49.812 -23.09,67.504 -12,18.578 -29.88,29.848 -51.95,31.816 -22.38,1.996 -43.67,-14.371 -64.32,-12.793 -35.5,2.707 -24.54,55.797 -40.71,80.254 -41.36,62.531 -113.8,-4.109 -169.5,8.914 -27.96,6.535 -36.65,-32.133 -11.08,-42.175 27.23,-10.696 52.6,-8.317 80.57,-2.434 20.11,4.23 46.65,21.351 59.79,-4.84 5.06,-10.09 2.01,-28.394 4.84,-39.601 12.11,-48.083 49.57,-62.817 95,-51.782 9.07,2.203 20.29,8.512 29.8,8.407 25.94,-0.297 23.27,-14.954 28.87,-35.586 5.7,-20.969 12.54,-41.243 30.45,-55.016 16.79,-12.918 35.8,-14.891 56.42,-12.621 21.24,2.34 48.16,19.094 67.94,7.363 25.68,-15.238 56.05,21.559 32.92,42.371"
               style="fill:#f2b625;fill-opacity:1;fill-rule:nonzero;stroke:none"
               id="path22" /><path
               d="m 2746.37,2046.31 c -9.34,6.02 -19.18,11.82 -29.1,17.57 21.05,26.87 48.92,46.26 80.63,63.26 35.74,19.16 14.38,70.51 -24.42,58 -47.09,-15.19 -87.53,-48.99 -115.02,-90.42 -21.97,10.47 -44.49,20.34 -67.47,29.02 5.03,19.48 7.46,39.67 7.51,59.7 0.05,20.17 -2.53,39.99 -7.4,59.54 -1.84,7.38 -3.89,14.63 -6.26,21.86 -0.92,2.82 -1.83,7.76 -2.73,11.91 0.1,0.44 0.25,0.85 0.32,1.3 0.2,1.14 0.41,2.29 0.6,3.43 3.7,21.15 -16.31,34.91 -34.87,34.04 -1.58,-0.07 -3.16,-0.15 -4.74,-0.22 -14.16,-0.66 -23.91,-14.36 -26.29,-26.93 -3.33,-17.6 6.37,-30.81 12.77,-46.66 12.27,-30.43 18.67,-64.37 14.72,-97.18 -0.19,-1.58 -0.53,-3.06 -0.76,-4.61 -31.23,9.67 -62.49,17.46 -92.76,22.29 -18.72,2.98 -31.58,-25.18 -14.58,-35.79 27.08,-16.9 55.45,-31.14 84.31,-44.45 -24.36,-34.48 -64.08,-56.26 -108.11,-66.01 -12.34,-2.74 -11.45,-18.4 0.26,-21.27 58.5,-14.34 117.52,20.37 150.67,68.14 1.89,-0.83 3.78,-1.66 5.67,-2.49 19.96,-8.75 39.8,-18.2 59.73,-27.48 -14.71,-47.28 -17.88,-106.37 14.82,-143.2 10.38,-11.69 26.29,-5.95 29.83,8.21 9.15,36.52 4.79,72.94 14.46,109.12 9.73,-3.86 19.5,-7.55 29.4,-10.83 29.27,-9.71 58.14,31.23 28.81,50.15"
               style="fill:#ef9025;fill-opacity:1;fill-rule:nonzero;stroke:none"
               id="path24" /><path
               d="m 2312.11,1634.1 c -28.07,-29.62 -35.95,-65.76 -32.66,-104.25 -40.15,43.11 -90.94,65.73 -155.35,39.03 -55.38,-22.95 -86.61,-82.06 -74.18,-140.61 11.79,-55.57 61.75,-96.8 118.28,-80.97 20.41,5.71 13.34,36.47 -5.18,39.02 -54.48,7.51 -72.87,77.25 -33.06,112.27 36.39,32.03 81.67,12.45 110.96,-17.91 45.34,-47 82.25,-107.25 116.07,-164.47 3.82,-9 7.25,-17.62 10.05,-25.72 2.31,-6.68 7.8,-8.19 12.74,-6.58 8.61,-1.95 19.2,8.02 15.52,18.12 -2.45,6.72 -5.07,13.98 -7.85,21.62 -7.95,61.72 -39.96,115.42 -51.94,177.13 -8.24,42.5 -5.91,118.24 58.9,109.36 38.79,-5.31 65.85,-42.86 63.12,-80.71 -2.46,-34.22 50.51,-41.41 52.98,-7.06 7.03,97.64 -116.03,198.66 -198.4,111.73"
               style="fill:#ed6926;fill-opacity:1;fill-rule:nonzero;stroke:none"
               id="path26" /><path
               d="m 1863.19,2231.24 c -7.62,0.64 -13.79,4.68 -18.06,10.13 -29.76,-6.09 -57.38,-9.9 -79.82,-37.51 -23.47,-28.86 -24.48,-78.4 9.59,-99.92 97.88,-61.85 147.1,122.33 88.29,127.3 z m 120.68,120.17 c -37.2,6.24 -57.56,-52.13 -83.46,-77.2 42.18,-22.34 51.04,-93.39 36.65,-138.47 -21.19,-66.37 -87.24,-110.65 -157.01,-94.96 -74.98,16.86 -110.39,97.02 -81.88,166.33 10.64,25.88 33.11,49.64 60.11,65.33 -7.73,4.66 -15.21,9.81 -22.34,15.38 -32.23,25.15 -53.8,62.77 -98.16,65.32 -11.9,0.69 -17.56,16.88 -6.29,23.26 70.47,39.92 118.12,-59.01 179.31,-73.44 86.43,-20.38 94.7,135.74 191.22,91.51 26.29,-12.05 5.86,-47.08 -18.15,-43.06"
               style="fill:#ea1c26;fill-opacity:1;fill-rule:nonzero;stroke:none"
               id="path28" /><path
               d="m 978.793,525.949 c 6.266,39.074 17.648,75.641 33.627,112.742 13.29,30.86 28.59,72.52 52.68,100.215 -13.04,7.649 -25.76,16.133 -37.88,25.332 -14.99,-40.793 -44.212,-78.898 -66.337,-115.383 -17.961,-29.613 -35.61,-62.257 -57.492,-90.421 26.343,-7.868 51.82,-18.801 75.402,-32.485 z m 48.197,-125.136 c -83.607,88.832 -166.228,135.718 -290.174,139.875 -13.375,0.449 -16.636,20.019 -3.211,23.496 38.532,9.976 80.204,11.265 121.348,5.093 12.184,38.469 34.309,75.203 53.391,109.75 22.215,40.223 43.66,89.231 76.871,122.02 -30.516,30.879 -53.516,64.801 -62.871,95.508 -3.918,12.855 10.582,21.664 21.347,16.461 53.997,-26.082 90.659,-82.957 143.589,-113.446 25.64,-14.769 53.78,-26.465 83.25,-30.707 24.42,-3.515 48.12,1.047 72.49,-2.543 24.24,-3.57 25.31,-38.566 6.66,-49.386 -33.12,-19.215 -73.03,-19.887 -113.52,-8.774 -2.91,-5.547 -7.28,-10.453 -12.91,-14.105 -0.3,-0.196 -0.6,-0.391 -0.9,-0.586 -22.3,-27.348 -39.31,-66.778 -55.94,-96.594 -17.66,-31.652 -35.82,-62.02 -56.05,-91.82 25.43,-19.086 47.56,-41.801 64.63,-67.715 19.18,-29.125 -24.75,-61.238 -48,-36.527"
               style="fill:#41b73c;fill-opacity:1;fill-rule:nonzero;stroke:none"
               id="path30" /><path
               d="m 2935.64,837.324 c -5.01,9.867 -12,18.555 -20.05,26.289 -7.16,-4.621 -14.01,-9.664 -20.23,-15.601 -23.58,-24.102 -17.97,-42.489 16.83,-55.164 25.64,0.617 33.42,24.84 23.45,44.476 z m -80.68,-87.273 c -53.94,42.672 -34.14,106.824 8.7,144.804 -4.7,1.665 -9.41,3.153 -14.1,4.344 -42.13,10.742 -87.65,0.578 -124.87,-20.461 -33.63,-19.011 -48.94,-46.422 -74.63,-72.711 -10.56,-10.808 -26.24,-1.781 -27.6,11.438 -9.16,88.687 116.33,144.344 188.32,146.269 77.71,2.082 174.08,-48.402 188.59,-131.574 12.78,-73.219 -87.49,-127.133 -144.41,-82.109"
               style="fill:#3baa9a;fill-opacity:1;fill-rule:nonzero;stroke:none"
               id="path32" /><path
               d="m 2716.09,637.191 c 1.81,5.297 5.18,10.305 10.48,14.368 12.94,7.886 22.7,18.742 29.26,32.57 -8.14,32.801 -23.98,42.394 -47.5,28.777 -19.38,-13.758 -16.93,-43.426 -5.84,-60.773 3.78,-5.914 8.41,-10.817 13.6,-14.942 z m 293.85,72.493 c -28.66,-156.559 -349.5,-238.856 -377.76,-44.598 -10.31,70.891 60,138.414 129.67,103.457 64.45,-32.344 56.61,-106.32 13.24,-149.465 11.72,-0.305 23.34,0.641 33.85,2.309 73.82,11.699 116.39,59.961 168.39,107.281 15.03,13.68 36.09,0 32.61,-18.984"
               style="fill:#3baa9a;fill-opacity:1;fill-rule:nonzero;stroke:none"
               id="path34" /><path
               d="m 1970.17,420.969 c -19,30.734 -53.31,20.379 -74.32,-1.746 -18.34,-19.309 -24.08,-38.399 -17.55,-59.668 2.6,-0.961 5.1,-2.25 7.36,-3.981 21.89,-16.738 41.22,-27.176 66.97,-7.781 21.62,16.293 32.48,49.012 17.54,73.176 z m 19.14,-117.692 c -34.32,-28.375 -91.45,-34.793 -125.81,-7.394 -6.71,-76.695 -67.62,-152.442 -140.16,-176.344 -34.01,-11.203 -53.15,36.746 -25.14,55.555 36.22,24.312 69.81,46.008 91.21,85.429 20.5,37.79 30.7,111.825 -31.61,117.594 -19.16,1.774 -29.29,14.832 -27.15,33.801 3.32,29.488 8.74,84.484 -27.81,97.352 -42,14.785 -47.44,-34.7 -53.27,-59.172 -8.15,-34.285 -10.52,-69.055 -9.04,-103.91 6.19,-17.387 11.47,-35.04 15.41,-52.887 8.51,-38.52 -47.46,-56.16 -59.28,-17.711 -16.79,54.59 -30.25,112.437 -59.29,162.301 -6.09,10.453 -13.87,25.382 -25.77,30.336 -19.36,8.054 -35.65,-5.598 -50.4,-19.821 -11.48,-11.07 -13.94,-17.019 -29.05,-23.492 -5.62,-2.406 -14.55,2.211 -15.53,8.387 -9.07,57.183 62.36,105.769 114.18,82.5 31.74,-14.258 51.32,-46.922 67.24,-76.141 0.6,-1.09 1.16,-2.211 1.75,-3.305 2.19,54.208 17.08,105.704 59.66,123.372 31.39,13.031 70.49,2.179 94.29,-21.157 29.85,-29.281 34.6,-72 32.44,-112.035 13.47,-4.613 25.41,-11.523 35.69,-20.195 5.79,20.324 16.65,39.734 30.05,53.933 44.11,46.758 115.9,53.707 158.67,0.887 39,-48.164 24.76,-119.816 -21.28,-157.883"
               style="fill:#f08a97;fill-opacity:1;fill-rule:nonzero;stroke:none"
               id="path36" /><path
               d="m 928.262,1940.95 c -13.887,33.19 -25.293,62.75 -31.102,96.14 -0.004,2.47 -0.402,4.91 -1.117,7.3 -1.129,7.72 -2.066,15.58 -2.555,23.84 -1.234,21 -19.058,35.01 -39.836,30.34 -42.496,-9.56 -85.652,-16.47 -127.793,-27.55 -22.273,-5.85 -17.625,-40.04 5.422,-40.05 24.453,-0.01 48.883,1.33 73.309,2.77 -41.887,-33.8 -83.641,-68.91 -123.336,-106.15 -16.098,12.66 -33.024,24.5 -51.535,32.64 -14.746,6.49 -34.953,-7.84 -24.293,-24.29 10.707,-16.51 24.004,-31.23 37.765,-45.43 -45.394,-46.07 -86.98,-95.46 -121.371,-149.56 -10.09,-15.87 11.332,-28.41 24.02,-18.53 49.152,38.28 95.89,79.51 142.223,121.26 12.832,-14 25.753,-27.97 39.945,-40.15 30.773,-26.42 71.14,13.74 44.5,44.5 -11.516,13.29 -25.035,25.26 -38.891,36.78 35.363,32 70.887,63.81 107.375,94.48 6.426,-22.82 15.707,-44.61 28.473,-63.13 19.094,-27.71 73.801,-11.09 58.797,24.79"
               style="fill:#459fdd;fill-opacity:1;fill-rule:nonzero;stroke:none"
               id="path38" /><path
               d="m 2911.3,139.48 c -24.6,-5.085 -50.82,7.59 -75.22,1.223 -13.8,-3.598 -23.4,-20.445 -12.19,-32.66 3.69,-4.023 7.87,-7.184 12.24,-10.0274 -29.38,-20.4531 -43.54,-21.3867 -57.77,13.9804 -9.36,23.266 -14.73,47.984 -24.27,71.258 -14.12,34.402 -38.37,83.465 -77,96.156 -52.18,17.149 -88.79,-29.246 -101.75,-77.547 -7.28,6.18 -15.26,11.223 -24.23,14.278 -42.8,14.558 -73.08,-12.688 -84.93,-48.118 -5.59,3.739 -11.83,6.555 -19.01,7.942 -60.95,11.742 -80.6,-62.723 -55.4,-105.3791 5.74,-9.7265 24.84,-10.2929 24.77,4.0938 -0.09,17.2305 -8.83,56.2423 25.92,41.4183 9.61,-4.098 22.29,-43.6253 27.07,-53.6136 18.59,-38.8008 34.96,-78.4532 50.46,-118.5742 10.8,-27.9766 46.37,-19.6915 57.58,2.0507 0.65,1.2618 1.3,2.5235 1.95,3.7813 5.73,11.1094 -0.13,23.3242 -7.84,31.5351 -18.87,43.4766 -39.77,86.0469 -62.97,127.3947 -2.35,4.183 -4.69,8.598 -7.09,13.074 1.59,22.082 5.19,50.457 39.72,37.535 12.66,-4.734 26.17,-40.883 33.26,-53.609 20.18,-36.1876 34.15,-74.8478 52.51,-111.80481 14.01,-28.18749 64.69,-16.47269 55.7,16.85161 -12.19,45.1601 -34.81,86.6875 -59.48,126.2222 -5,8.012 -10.27,16.883 -15.96,25.766 5.04,21.496 14.63,47.395 32.46,57.145 34.92,19.089 49.02,-29.504 58.12,-52.465 14.53,-36.684 17.41,-78.8675 38.84,-112.6604 27.68,-43.6719 70.6,-46.88676 106.38,-25.461 3.37,-8.1758 9.54,-15.2617 17.17,-19.1367 17.36,-8.8164 34.67,-3.15234 47.04,11.0742 15.76,18.1367 26.57,42.0235 38.6,62.7617 14.24,24.5622 -2.44,62.1762 -34.68,55.5152"
               style="fill:#9a135e;fill-opacity:1;fill-rule:nonzero;stroke:none"
               id="path40" /><path
               d="m 766.633,1187.08 c -135.383,16.84 -282.207,11.38 -417.113,-7.27 -29.168,-4.03 -20.235,-48.15 6.683,-49.37 135.504,-6.17 274.887,-10.89 410.43,-7 42.047,1.21 39.629,58.71 0,63.64"
               style="fill:#e45eb6;fill-opacity:1;fill-rule:nonzero;stroke:none"
               id="path42" /><path
               d="m 799.848,1291.06 c -31.571,5.18 -62.41,7.23 -93.262,6.29 10.949,24.4 11.781,51.32 -6.934,78.67 -29.05,42.46 -90.992,68.42 -141.238,68.59 -89.184,0.29 -161.41,-92.48 -128.074,-165.41 -32.84,-5.11 -66.313,-7.66 -98.996,-12.33 -18.985,-2.72 -13.512,-31.98 4.39,-32.46 47.09,-1.26 96.461,3.02 143.079,-4.32 27.296,-4.29 55.222,28.78 29.882,51.35 -51.582,45.94 2.743,100.38 57.227,98.46 22.113,-0.77 54.637,-8.54 71.273,-24.29 30.567,-28.93 2.231,-55.15 -22.007,-74.85 -25.461,-20.69 2.878,-55.48 29.292,-50.33 46.696,9.12 92.34,10.02 139.293,2.33 38.067,-6.25 54.446,52.01 16.075,58.3"
               style="fill:#e45eb6;fill-opacity:1;fill-rule:nonzero;stroke:none"
               id="path44" /><path
               d="m 1587.36,1553.63 c 0.46,-37.19 1.77,-75.23 13,-102.96 4.95,7.25 9.7,14.69 14,22.58 12.71,23.33 23.35,49.45 28.01,75.73 3.63,20.45 -5.29,44.13 -29.32,30.28 -1.61,-0.93 -13.7,-18.86 -14.05,-19.27 -3.15,-3.76 -7.28,-5.76 -11.64,-6.36 z m 114.09,-204.36 c -39.16,-10.34 -77.74,-3.76 -108.62,15.99 -24.14,-18.21 -50.62,-32.86 -78.14,-42.59 -21.71,-7.67 -33.62,24.86 -15.17,35.98 20.4,12.3 39.33,26.13 56.55,41.67 -6.47,9.01 -12.1,18.91 -16.53,29.78 -13.66,33.47 -15.68,69.89 -14.61,105.67 0.64,21.57 6.25,45.81 3.36,67.24 -5.41,40.06 -20.19,32.18 -39.34,6.53 2.49,-54.86 4.16,-111.13 1.18,-165.64 -2.1,-38.24 -57.44,-38.23 -59.42,0 -2.48,48.08 0.68,96.76 1.67,144.89 0.66,32.15 -4.82,77.12 -49.87,59.66 -11.23,-4.35 -19.92,-13.27 -26.41,-23.77 -0.43,-15.85 -1.81,-31.58 -1.55,-45.35 0.95,-49.41 9.84,-97.57 13.18,-146.66 2.45,-36.09 -52.36,-41.4 -61.46,-8.32 -12.83,46.64 -14.81,97.58 -15.09,145.76 -0.07,11.1 10.04,66.81 3.16,76.11 -10.45,14.12 -31.85,-21.81 -40.9,-30.8 -17.78,-17.63 -49.01,5.5 -35.07,27.06 17.72,27.39 29.79,62.6 65.05,71.13 24.59,5.94 47.47,-3.74 60.78,-25.11 0.94,-1.5 1.75,-3.07 2.56,-4.64 24.89,23.27 59.91,34.56 95.62,21.09 20.75,-7.83 32.28,-21.81 38.65,-38.94 31.04,29.7 75.24,42.14 96.4,-9.34 2.94,-7.15 4.93,-15.66 6.34,-25.08 42.14,42 126.73,14.72 122.14,-69.41 -3.04,-55.6 -27.53,-108.08 -63.96,-150.76 11.51,-2.98 25.45,-3.27 42.4,-0.12 40.19,7.47 57.64,-51.34 17.1,-62.03"
               style="fill:#73d0c9;fill-opacity:1;fill-rule:nonzero;stroke:none"
               id="path46" /><path
               d="m 920.914,-196.488 c -3.383,3.543 -6.66,7.226 -9.797,11.097 -3.742,-3.574 -8.5,-6.136 -13.75,-6.703 -15.695,-1.695 -42.773,-0.953 -49.844,-19.094 -4.925,-12.644 3.907,-29.761 15.75,-35.203 18.262,-8.379 40.887,3.793 50.157,19.692 5.554,9.519 7.074,19.758 7.484,30.211 z M 1089.45,-367.77 c -7.13,-1.078 -14.21,-0.585 -20.95,1.059 -1.16,-0.113 -2.35,-0.172 -3.62,-0.09 -46.02,2.848 -67.224,48.535 -61.33,90.731 9.13,65.406 62.63,119.75 85.39,180.6169 12.5,33.4414 18.84,85.4179 -19.62,106.5117 -39.65,21.75 -97.781,-20.19532 -120.418,-49.9375 -30.226,-39.7149 -7.964,-73.8751 4.442,-110.7071 0.101,-0.094 0.215,-0.133 0.312,-0.227 33.27,-32.007 21.309,-92.257 -8.008,-122.96 -29.418,-30.813 -80.066,-40.95 -116.621,-16.848 -33.086,21.812 -47.754,68.629 -28.941,104.418 16.359,31.133 52.68,45.863 85.996,40.234 -17.223,37.668 -21.699,80.8049 -2.914,117.2737 29.332,56.9453 107.77,103.4141 172.312,94.168 61.84,-8.8594 91.37,-71.99223 86.16,-129.2618 -3.57,-39.2109 -19.79,-74.4809 -36.46,-109.6369 -13.75,-28.98 -49.84,-79.754 -48.89,-117.984 3.85,-3.457 5.9,-8.656 3.79,-14.746 -0.24,-0.68 -0.33,-1.36 -0.47,-2.039 2.86,-6.879 7.71,-12.981 14.99,-18.051 7.64,0.195 13.99,6.922 18.1,12.801 13.46,19.242 9.21,45.461 8.2,67.515 -1.73,37.961 58.18,38.024 59.06,0 1.14,-49.234 -12.04,-114.011 -70.51,-122.84"
               style="fill:#47bcd7;fill-opacity:1;fill-rule:nonzero;stroke:none"
               id="path48" /><path
               d="m 2198.35,-9.91406 c 0.44,1.43359 0.69,2.91406 0.77,4.41406 l 12.23,-2.75391 c -4.36,-0.49609 -8.69,-1.05078 -13,-1.66015 z m -102.29,-31.62894 -3.25,-4.8789 c 2.31,4.8438 4.63,9.6836 6.94,14.5274 1.22,-1.4727 2.43,-2.9571 3.61,-4.461 -2.85,-0.7383 -5.5,-2.4922 -7.3,-5.1875 z m -42.03,44.09378 c 0.22,0.23438 0.36,0.5 0.55,0.7461 0.89,-2.82813 1.7,-5.66407 2.45,-8.51563 -6.49,-0.39453 -12.97,-0.89453 -19.43,-1.51172 2.98,1.54297 5.88,3.18359 8.89,4.6875 3.2,-1.85156 7.59,0.16797 7.54,4.59375 z m 229.25,-4.10156 C 2245.74,7 2208.2,15.5508 2170.66,24.1016 c 11.71,21.8945 23.41,43.789 35.15,65.6601 5.08,9.4649 -5.7,22.5353 -15.69,15.6953 -14.75,-10.0859 -29.54,-20.0429 -44.63,-29.6093 -8.27,-5.2383 -36.05,-27.125 -45.84,-27.7227 -25.23,-1.5312 -57.58,50.6836 -72.59,68.473 -7.63,9.05 -22.53,-0.653 -19.4,-11.293 8.53,-28.9339 18.16,-57.4456 28.96,-85.5706 -28.16,-13.87112 -54.95,-29.35549 -80.91,-47.0821 -7.6,-5.1836 -8.18,-20.0976 2.86,-21.9257 27.35,-4.5352 53.9,-6.3321 81.29,-5.4727 -5.87,-26.3164 -5.87,-50.4299 -0.27,-78.3519 2.07,-10.254 15.72,-10.199 20.75,-2.711 l 47.21,70.2426 c 21.07,-22.0547 39.65,-45.5856 55.83,-71.8086 6.45,-10.457 24.36,-3.828 20.4,8.605 -7.04,22.125 -31.58,72.1645 -16.98,89.8364 6.08,7.3633 49.78,6.8125 58.23,7.957 19.41,2.625 38.83,5.2383 58.25,7.8594 11.15,1.5039 10.16,19.25392 0,21.56642"
               style="fill:#ffffff;fill-opacity:1;fill-rule:nonzero;stroke:none"
               id="path50" /><path
               d="m 559.945,2391.92 c 0.645,1.8 0.95,3.68 0.934,5.58 3.207,-0.39 6.41,-0.73 9.625,-1.17 -3.488,-1.61 -7.027,-2.99 -10.559,-4.41 z m -85.59,25.55 c -0.898,-1.94 -1.175,-4.05 -1,-6.07 -1.738,-0.08 -3.472,-0.14 -5.207,-0.22 3.344,4.71 6.567,9.54 9.657,14.49 -1.168,-2.73 -2.168,-5.44 -3.45,-8.2 z m 127.704,-6.34 c -34.231,9.09 -68.793,12.18 -103.95,11.76 11.555,31.91 16.797,64 16.379,98.69 -0.109,9.2 -11.519,11.32 -16.379,4.44 -19.66,-27.87 -40.406,-54.86 -62.23,-81.05 -1.301,1.16 -2.926,2.11 -4.918,2.74 -30.559,9.61 -56.008,23.05 -80.867,43.23 -11.395,9.25 -26.504,-1.99 -20.176,-15.56 9.398,-20.18 19.66,-39.6 30.797,-58.58 0.062,-2.82 1,-5.7 3.074,-8.43 2.891,-3.8 5.871,-7.56 8.918,-11.29 0.508,-0.81 0.981,-1.63 1.488,-2.43 -29.468,-5.99 -57.925,-14.1 -86.261,-25.05 -11.125,-4.29 -11.364,-18.69 0,-22.92 32.195,-11.99 64.625,-20 98.218,-25.11 -12.453,-23.4 -24.906,-46.81 -37.355,-70.21 -1.906,-3.58 -1.813,-6.88 -0.688,-9.66 -1.171,-6.77 6.852,-13.55 14.235,-9.9 35.383,17.51 67.375,42.26 100.996,62.86 1.578,0.96 2.769,2.11 3.773,3.33 27.918,-5.93 53.739,-37.7 75.055,-55.74 10.395,-8.8 25.602,2.06 19.055,14.7 -11.657,22.5 -53.227,81.91 -34.149,97.9 6.778,5.68 22.391,6.91 31.461,10.88 16.738,7.31 31.289,16.69 45.844,27.66 6.301,4.75 6.445,15.42 -2.32,17.74"
               style="fill:#ffffff;fill-opacity:1;fill-rule:nonzero;stroke:none"
               id="path52" /><path
               d="m 2640.41,1397.17 c -3.75,-0.18 -6.95,-1.6 -9.44,-3.84 -2.92,2.87 -5.86,5.7 -8.67,8.71 6.02,-1.77 12.06,-3.38 18.11,-4.87 z m 135.23,20.45 c -0.98,0.82 -2.06,1.51 -3.2,2.1 3.71,2.77 7.36,5.66 11.14,8.32 -2.61,-3.5 -5.32,-6.93 -7.94,-10.42 z m 119.56,-48.31 c -37.39,2.03 -74.11,6.57 -110.75,13.41 21.24,27.97 42.03,56.23 62.13,85.06 8.5,12.18 -7.61,24.77 -18.97,18.96 -32,-16.36 -61.07,-35.9 -88.37,-58.56 -5.45,33.48 -10.89,66.96 -16.37,100.44 -2.17,13.26 -22.9,12.24 -25.82,0 -5.62,-23.66 -8.03,-72.23 -21.98,-92.42 -18.31,-26.52 -60.76,-3.81 -85.44,2.54 -10.21,2.63 -21.46,-9.4 -14.66,-19.08 23.82,-33.93 52.44,-59.82 88.2,-77.93 -3.48,-3.67 -6.36,-7.65 -8.69,-12.11 -21.09,-21.52 -41.96,-43.27 -62.89,-64.94 -10.34,-10.69 -0.13,-31.61 15.28,-26.25 18.54,6.46 37.08,12.91 55.62,19.37 30.81,10.73 34.54,15.21 61.1,-5.21 26.58,-20.44 52.53,-38.16 82.92,-52.87 14.38,-6.96 28.63,7.07 21.53,21.53 -10.83,22.05 -47.51,68.85 -30.5,90.64 12.14,15.55 81.7,23.3 101.61,28.24 16.81,4.17 12.32,28.3 -3.95,29.18"
               style="fill:#ffffff;fill-opacity:1;fill-rule:nonzero;stroke:none"
               id="path54" /><path
               d="m 1496.08,1096.99 c -0.61,1.74 -1.45,3.39 -2.49,4.9 6.07,1.34 12.12,2.8 18.2,4.06 -5.23,-2.99 -10.47,-5.98 -15.71,-8.96 z m -122.32,37.1 c 5.11,8.17 12.67,16.78 18.31,23.49 -5.25,-9.48 -11.26,-17.73 -18.31,-23.49 z m 202.35,8.12 c -36.17,-5.3 -71.77,-12.43 -107.06,-21.24 -8.73,30.08 -18.22,60 -27.46,89.92 0.05,1.31 0.09,2.61 0.14,3.92 0.14,3.52 -1.55,6.38 -3.95,8.49 -0.86,2.82 -1.75,5.64 -2.6,8.46 -3.95,13.12 -21.81,15.55 -28.98,3.79 -17.8,-29.2 -36.31,-58.55 -51.51,-89.22 -3.49,-7.06 -6.59,-14.54 -6.73,-21.62 -26.92,-1.39 -60.72,14.03 -84.37,21.24 -10.54,3.21 -17.43,-8.48 -13.22,-16.93 -0.21,-1.16 -0.25,-2.42 0.15,-3.86 9.08,-32.73 27.46,-62.77 48.36,-89.86 -2.9,-3.43 -5.76,-6.84 -8.58,-10.13 -12.71,-14.81 -25.75,-30.17 -35.71,-47.041 -2.51,-1.813 -5.02,-3.625 -7.54,-5.438 -12.51,-9.023 -4.77,-26.519 10.22,-24.226 17.93,2.746 35.57,5.801 53.15,10.355 8.85,2.289 43.17,18.094 51.5,16.715 22.75,-3.769 43.33,-61.984 53.84,-81.844 5.16,-9.757 22.22,-8.097 24.41,3.192 3.63,18.601 7.27,37.203 10.86,55.812 l 3.55,18.621 c -3.39,16.575 1.03,22.528 13.26,17.864 9.57,3.316 39.44,-4.547 48.32,-5.571 19.33,-2.23 38.65,-4.457 57.98,-6.668 13.75,-1.574 15.47,17.239 6.4,23.629 -30.51,21.51 -61.03,43.02 -91.51,64.58 32.17,18.23 64.34,36.46 96.5,54.7 12.96,7.36 3.47,24.25 -9.42,22.36"
               style="fill:#ffffff;fill-opacity:1;fill-rule:nonzero;stroke:none"
               id="path56" /><path
               d="m 686.414,318.039 c -27.387,-0.652 -54.793,-1.894 -82.191,-3.324 15.093,13.816 30.539,28.062 41.722,44.82 3.825,5.723 -4.086,14.317 -9.859,9.86 -15.484,-11.961 -28.731,-27.016 -42.211,-41.504 -1.242,18.414 -2.891,36.828 -5.668,55.375 -1.051,7.007 -12.969,5.41 -12.43,-1.684 1.496,-19.766 2.629,-39.844 2.973,-59.937 -17.027,13.769 -34.117,27.46 -51.23,41.125 -6.672,5.328 -16.258,-3.793 -9.571,-9.571 15.731,-13.59 31.508,-27.117 47.309,-40.617 -22.938,-1.332 -45.867,-2.707 -68.77,-4.004 -8.183,-0.465 -8.32,-12.976 0,-12.832 21.805,0.371 43.637,0.676 65.477,1.012 -11.949,-10.871 -23.82,-22.078 -32.41,-34.93 -2.364,-3.539 2.136,-7.019 5.414,-5.41 15.847,7.781 30.152,21.004 43.543,33.977 -0.492,-14.723 -1.528,-29.387 -3.438,-43.864 -1.816,-13.777 22.547,-14.66 22.149,0 -0.36,13.246 -0.735,26.383 -1.188,39.481 16.438,-14.61 32.934,-30.039 51.688,-40.864 7.183,-4.144 13.582,5.137 8.519,11.043 -13.344,15.571 -30.547,28.629 -47.234,41.477 25.828,0.586 51.644,1.336 77.406,2.617 11.344,0.567 11.488,18.031 0,17.754"
               style="fill:#ffffff;fill-opacity:1;fill-rule:nonzero;stroke:none"
               id="path58" /><path
               d="m 1530.54,2051.68 c -27.03,4.06 -54.1,5.85 -81.1,5.63 17.67,19.34 35.31,38.7 52.9,58.11 9.76,10.77 -6.53,26.87 -15.91,15.91 -21.33,-24.92 -42.61,-49.88 -63.8,-74.92 -0.72,-0.04 -1.45,-0.03 -2.17,-0.08 -15.19,23.49 -31.07,46.55 -46.85,69.32 -6.1,8.81 -20.45,0.77 -14.57,-8.52 13.06,-20.64 25.32,-41.68 37.38,-62.82 -27.53,-2.92 -54.9,-7.87 -81.98,-14.76 -7.18,-1.82 -3.99,-11.92 2.99,-10.84 29.65,4.55 58.94,6.83 88.17,7.4 -15.06,-17.87 -30.13,-35.73 -45.07,-53.71 -5.9,-7.11 3.81,-17.29 10.32,-10.32 15,16.07 29.86,32.25 44.75,48.42 10.27,-18.28 20.54,-36.57 31.1,-54.73 7.56,-12.98 26.84,-1.52 20.04,11.71 -10.26,19.94 -21.57,39.46 -33.48,58.66 26.55,-0.5 53.15,-2.43 79.99,-5.59 3.08,-3.52 8.46,-5.41 13.49,-3.1 2.19,1 4.38,2 6.57,3.01 8.66,3.97 6.91,19.76 -2.77,21.22"
               style="fill:#ffffff;fill-opacity:1;fill-rule:nonzero;stroke:none"
               id="path60" /><path
               d="m 1093.9,1464.62 c -19.33,2.67 -38.95,4.2 -58.66,5.12 -3.94,3.83 -7.97,7.6 -12.06,11.29 6.97,14.49 15.93,27.94 21.82,42.87 3.06,7.76 -8.21,13.32 -13.51,7.87 -9.97,-10.24 -17.78,-23.15 -23.97,-37.2 -9.282,7.71 -18.688,15.11 -27.969,22.15 -5.434,4.12 -12.781,-5.29 -7.348,-9.52 10.742,-8.37 20.547,-17.23 29.907,-26.4 -1.17,-3.29 -2.133,-6.65 -3.153,-9.99 -17.547,0.26 -35.062,0.24 -52.394,0.23 -8.629,-0.01 -8.563,-12.98 0,-13.36 16.015,-0.7 31.976,-1.92 47.921,-3.27 -2.941,-12.29 -5.16,-24.47 -6.675,-35.72 -1.184,-8.78 11.82,-12.98 13.731,-3.78 2.68,12.92 6.41,25.53 10.65,37.97 5.91,-0.53 11.82,-1.03 17.72,-1.57 8.79,-9.85 17.51,-19.84 26.47,-30.05 5.91,-6.74 17.82,2.23 12.56,9.7 -4.39,6.23 -9.27,12.23 -14.33,18.11 12.26,-1.05 24.53,-2.01 36.81,-2.75 10.31,-0.61 12.96,16.86 2.48,18.3"
               style="fill:#ffffff;fill-opacity:1;fill-rule:nonzero;stroke:none"
               id="path62" /><path
               d="m 2309.16,1871.12 c -14.38,4.82 -29.49,8.05 -44.84,10.37 11.8,10.57 24.96,20.62 34.51,32.7 6.62,8.38 -1.85,23.17 -12.47,16.15 -11.9,-7.86 -22.09,-19.29 -31.75,-30.51 -2.32,6.1 -4.44,12.27 -6.35,18.54 -2.8,9.17 -16.89,5.37 -14.41,-3.97 2.43,-9.14 5.29,-18.88 8.59,-28.64 -0.43,-0.48 -0.83,-0.98 -1.26,-1.47 -15,1.39 -30.02,2.14 -44.63,2.53 -5.31,0.15 -6.77,-8.71 -1.29,-9.49 11.67,-1.67 23.15,-3.94 34.56,-6.38 -7.7,-9.27 -15.25,-18.67 -22.55,-28.29 -4.82,-6.36 5.74,-14.4 11.05,-8.52 10.01,11.08 20.31,21.9 30.79,32.54 0.16,-0.03 0.31,-0.06 0.46,-0.1 6.5,-15.45 14.61,-30.08 25.05,-41.58 6.59,-7.26 16.27,1.97 12.7,9.8 -4.15,9.11 -9.62,17.62 -14.76,26.3 10.57,-2.53 21.15,-5.02 31.84,-7.27 11.29,-2.39 15.73,13.61 4.76,17.29"
               style="fill:#ffffff;fill-opacity:1;fill-rule:nonzero;stroke:none"
               id="path64" /><path
               d="m 2499.15,1087.04 c -20.38,4.26 -41.61,6.18 -62.94,6.91 -0.12,0.14 -0.23,0.28 -0.35,0.42 9.89,15.57 19.41,31.39 28.46,47.52 6.61,11.79 -11.86,22.47 -18.07,10.56 -7.45,-14.33 -15.42,-28.34 -23.65,-42.18 -7.17,8.62 -14.34,17.26 -21.55,25.85 -5.77,6.87 -15.43,-2.99 -9.82,-9.82 7.89,-9.62 15.84,-19.19 23.78,-28.78 -0.67,-1.09 -1.39,-2.16 -2.07,-3.24 -13.96,0.01 -27.85,-0.26 -41.43,-0.59 -9.14,-0.22 -9.19,-14.32 0,-14.24 10.56,0.09 21.02,-0.25 31.41,-0.86 -6.84,-10.49 -13.82,-20.9 -21.1,-31.14 -6.81,-9.57 8.8,-18.34 15.63,-9.13 9.39,12.64 18.32,25.57 27.03,38.65 2.65,-0.24 5.31,-0.45 7.95,-0.7 10.58,-13.02 21.02,-26.15 31,-39.62 7.49,-10.11 22.23,1.31 13.66,10.54 -8.19,8.84 -16.15,17.88 -24.03,27 14.51,-1.51 29.06,-3.07 43.77,-4.25 9.74,-0.77 11.9,15.09 2.32,17.1"
               style="fill:#ffffff;fill-opacity:1;fill-rule:nonzero;stroke:none"
               id="path66" /><path
               d="m 2481.73,496.398 c -20.5,-0.152 -42.57,-0.289 -64.83,-1.203 -1.31,1.274 -2.59,2.563 -3.89,3.836 5.17,14.707 10.25,29.446 15.03,44.25 4.1,12.699 -16.22,18.336 -20,5.516 -3.42,-11.59 -6.52,-23.305 -9.7,-34.988 -13.93,14.23 -27.87,28.461 -41.81,42.691 -5.4,5.516 -13.7,-2.848 -8.45,-8.453 l 46.11,-49.219 c -0.44,-1.687 -0.95,-3.355 -1.39,-5.047 -24.75,-1.808 -49.15,-4.945 -71.25,-10.82 -5.33,-1.418 -5.41,-9.496 0,-10.879 6.29,-2.461 12.58,-4.918 18.87,-7.379 2.41,-1.289 4.39,2.152 2.13,3.645 -0.81,0.683 -1.61,1.371 -2.42,2.058 15.12,-0.914 30.84,-0.679 46.69,0.141 -2.73,-10.602 -5.48,-21.207 -8.18,-31.793 -1.93,-7.555 8.92,-10.324 11.52,-3.18 4.36,11.989 8.73,23.992 13.07,36.016 4.75,0.367 9.5,0.734 14.24,1.187 7.99,-8.945 16.21,-17.648 25.22,-25.14 5.67,-4.719 16.46,1.699 11.18,8.629 -4.99,6.547 -10.62,12.64 -16.43,18.613 15.2,1.742 30.12,3.684 44.29,5.523 9.87,1.282 10.62,16.075 0,15.996"
               style="fill:#ffffff;fill-opacity:1;fill-rule:nonzero;stroke:none"
               id="path68" /><path
               d="m 1433.92,40.2578 c -22.12,8.3047 -45.02,13.332 -68.22,15.8633 8.81,9.8516 18.2,19.1992 28.37,27.8047 10.02,8.4805 -5.28,24.2342 -14.54,14.543 -12.23,-12.7852 -23.73,-25.9961 -34.33,-39.8282 -11.67,13.7071 -23.31,27.4492 -35.3,40.8985 -1.38,1.5509 -3.45,-0.6758 -2.23,-2.2383 10.08,-12.9063 20.17,-25.8906 29.86,-39.1367 -19.34,0.4336 -38.77,-0.7852 -58.03,-3.4141 -7.28,-0.9961 -5.64,-13.6797 1.75,-12.9492 17.81,1.7578 35.15,1.8906 52.23,0.7148 -9.04,-13.2304 -17.23,-27.0781 -24.27,-41.8281 -3.71,-7.76172 7.2,-14.4453 11.68,-6.83203 9.2,15.60937 19.26,30.67583 30.33,44.90623 0.35,-0.5 0.71,-0.9961 1.05,-1.5039 11.31,-16.9258 20.77,-35.56249 33.6,-51.3359 5.58,-6.8555 16.71,2 12.15,9.37497 -9.86,15.96093 -23.49,29.95703 -36.13,44.07423 22.49,-3.4688 44.74,-9.0703 67.22,-16.5742 11.18,-3.7305 15.56,13.4258 4.81,17.4609"
               style="fill:#ffffff;fill-opacity:1;fill-rule:nonzero;stroke:none"
               id="path70" /><path
               d="m 421.539,1787.41 c -30.098,-1.71 -60.195,-4.44 -90.277,-7.33 10.906,22.51 21.277,45.21 30.379,68.15 3.379,8.52 -10.266,13.93 -14.621,6.17 -13.809,-24.63 -26.309,-50.39 -38.235,-76.44 -0.168,-0.01 -0.332,-0.03 -0.5,-0.04 -16.344,11.68 -32.785,23.11 -48.211,34.88 -7.148,5.46 -16.847,-6.96 -9.691,-12.56 10.18,-7.96 20.324,-16.41 30.523,-24.96 -11.445,-1.11 -22.894,-2.22 -34.336,-3.23 -7.933,-0.7 -8.015,-13.18 0,-12.48 16.114,1.4 32.254,2.68 48.407,3.93 1.769,-1.48 3.57,-2.92 5.347,-4.39 -9.363,-20.97 -18.531,-41.99 -27.703,-62.68 -3.723,-8.4 8.262,-15.88 12.598,-7.37 9.797,19.23 19.859,38.6 29.742,58.11 17.059,-13.63 34.535,-26.51 52.906,-36.92 7.301,-4.14 14.832,5.53 8.949,11.59 -15.515,15.97 -33.421,30.29 -51.941,44 32.297,2.54 64.574,5.27 96.664,9.09 7.766,0.92 8.188,12.94 0,12.48"
               style="fill:#ffffff;fill-opacity:1;fill-rule:nonzero;stroke:none"
               id="path72" /><path
               d="m 801.633,901.004 c -15.254,-0.266 -30.617,-1.711 -45.969,-3.461 4.66,9.027 9.285,18.074 13.617,27.238 2.489,5.258 -5.203,9.903 -7.89,4.614 -4.411,-8.665 -8.551,-17.489 -12.668,-26.321 -6.387,8.305 -12.407,16.899 -17.692,26.071 -3.226,5.593 -11.765,0.597 -8.652,-5.055 5.449,-9.899 11.586,-19.313 18.258,-28.324 -11.426,-1.411 -22.832,-2.848 -34.145,-4.024 -6.301,-0.656 -6.504,-10.488 0,-10.019 10.953,0.793 22.059,1.34 33.149,1.945 -2.313,-5 -4.602,-10.016 -6.961,-14.984 -1.965,-4.149 4.113,-7.809 6.222,-3.637 3.246,6.402 6.59,12.777 9.911,19.16 0.32,0.02 0.636,0.039 0.957,0.059 5.214,-6.25 10.625,-12.344 16.46,-18.098 5.247,-5.172 13.422,3.016 8.079,8.078 -3.735,3.543 -7.289,7.231 -10.77,10.973 13.324,0.949 26.609,2.14 39.66,4.219 6.621,1.054 4.953,11.679 -1.566,11.566"
               style="fill:#ffffff;fill-opacity:1;fill-rule:nonzero;stroke:none"
               id="path74" /><path
               d="m 2282.77,2350.86 c -9.93,1.69 -19.85,3.39 -29.78,5.09 6.73,1.65 13.42,3.37 19.92,5.48 6.42,2.07 3.79,11.99 -2.8,10.17 -7.7,-2.13 -15.32,-4.81 -22.92,-7.56 -0.94,2.58 -3.21,4.65 -5.96,4.54 l -9.92,20.84 c -3.68,7.72 -14.81,0.99 -11.39,-6.65 2.92,-6.51 5.84,-13.02 8.76,-19.53 -1.46,-0.77 -2.9,-1.56 -4.34,-2.39 -8.93,1.53 -17.86,3.05 -26.79,4.58 -4.5,0.77 -6.5,-5.99 -1.91,-6.95 6.23,-1.3 12.46,-2.6 18.68,-3.9 -8.81,-5.91 -17.32,-12.41 -25.65,-18.22 -5.35,-3.74 -0.76,-11.83 5.15,-8.8 13.33,6.83 28.18,13.33 41.08,21.79 l 9.76,-21.78 c 3.8,-8.49 16.64,-1.13 12.6,7.37 -1.88,3.95 -3.77,7.9 -5.65,11.85 9.47,-1.98 18.93,-3.96 28.4,-5.93 6.57,-1.38 9.27,8.88 2.76,10"
               style="fill:#ffffff;fill-opacity:1;fill-rule:nonzero;stroke:none"
               id="path76" /><path
               d="m 1744.86,2537.41 c -8.51,-2.4 -16.89,-5.68 -25.21,-9.21 -0.3,0.26 -0.6,0.51 -0.9,0.76 3.79,11.78 7.26,23.66 10.2,35.49 2.31,9.3 -11.19,12.88 -14.24,3.93 -3.2,-9.41 -6.07,-19.05 -8.77,-28.75 -2.41,1.91 -4.8,3.84 -7.28,5.63 -4.38,3.18 -8.48,-3.41 -5.43,-7.04 3.01,-3.57 6.23,-7.01 9.5,-10.42 -0.69,-2.66 -1.34,-5.33 -1.99,-8 -7.18,-3.33 -14.33,-6.67 -21.41,-9.77 -4.97,-2.17 -1.42,-10.71 3.73,-8.83 4.74,1.73 9.6,3.38 14.47,5.03 -0.97,-4.28 -1.95,-8.56 -2.84,-12.81 -1.46,-6.95 8.03,-9.4 10.51,-2.9 2.64,6.91 5.19,13.93 7.67,21 1.52,0.53 3.04,1.03 4.56,1.57 6.11,-5.86 12.28,-11.66 18.21,-17.53 6.33,-6.25 16.31,3.92 9.7,9.7 -4.84,4.23 -9.65,8.59 -14.47,12.95 6.34,2.56 12.58,5.29 18.53,8.43 5.93,3.15 1.85,12.56 -4.54,10.77"
               style="fill:#ffffff;fill-opacity:1;fill-rule:nonzero;stroke:none"
               id="path78" /><path
               d="m 1964.83,1712.13 c -8.5,4.85 -18.34,9.25 -28.63,12.91 7.33,6.57 14.65,13.16 22,19.68 7.34,6.51 -3.72,17.73 -10.81,10.82 -8.84,-8.63 -17.77,-17.18 -26.64,-25.8 -2,0.51 -4,1.13 -6,1.55 -1.22,3.68 -2.3,7.49 -3.08,11.62 -1.23,6.47 -10.94,3.68 -9.83,-2.71 0.39,-2.31 0.9,-4.65 1.46,-7 -5.53,0.68 -11,1.06 -16.22,0.85 -4.54,-0.18 -5.03,-6.06 -1.03,-7.59 6.91,-2.66 14.1,-4.54 21.26,-6.51 0.3,-0.82 0.71,-1.61 1.03,-2.43 -7.15,-7.11 -14.24,-14.29 -21.1,-21.68 -4.4,-4.74 2.11,-10.86 6.96,-6.96 6.7,5.38 13.26,10.94 19.77,16.56 4.82,-8.93 10.81,-17.11 18.28,-23.2 5.66,-4.62 12.99,2.46 8.08,8.07 -6.75,7.73 -12.47,15.16 -17.22,23.1 0.41,0.37 0.83,0.72 1.24,1.08 11.37,-4.33 22.11,-9.85 33.21,-14.81 8.28,-3.69 15.52,7.75 7.27,12.45"
               style="fill:#ffffff;fill-opacity:1;fill-rule:nonzero;stroke:none"
               id="path80" /><path
               d="m 157.813,2507.87 c -10.754,-6.52 -20.563,-14.72 -29.43,-23.9 -4.024,3.7 -8.242,7.04 -12.449,9.93 -8.184,5.63 -15.125,-7.28 -7.629,-13.05 3.558,-2.74 6.668,-5.68 9.496,-8.75 -0.028,-0.03 -0.051,-0.07 -0.078,-0.1 -10.407,-0.25 -20.8089,-0.49 -31.2113,-0.74 -6.1054,-0.15 -6.1172,-9.35 0,-9.49 l 23.1953,-0.56 c -3.566,-5.13 -6.926,-10.37 -9.9531,-15.72 -4.0625,-7.16 6.3791,-13.05 10.9261,-6.38 5.117,7.49 10.738,14.24 16.578,20.72 4.558,-6.92 8.519,-14.29 12.82,-22.01 4.184,-7.5 14.25,-2.05 13.012,5.49 -0.969,5.91 -3.133,11.59 -5.988,17.01 3.136,-0.08 6.273,-0.15 9.41,-0.22 8.258,-0.2 8.269,13.03 0,12.83 -5.66,-0.14 -11.324,-0.27 -16.985,-0.41 8.602,8.2 17.719,15.92 27.442,23.48 6.84,5.31 -1.946,16.23 -9.156,11.87"
               style="fill:#ffffff;fill-opacity:1;fill-rule:nonzero;stroke:none"
               id="path82" /><path
               d="m 1643.15,757.188 c -8.79,1.777 -17.86,2.539 -27.01,2.671 2.4,3.258 4.78,6.539 7.38,9.668 8.95,10.77 -6.88,23.239 -15.33,11.825 -5.3,-7.172 -9.97,-14.68 -14.35,-22.34 l 0,0 c -6.13,6.234 -12.49,12.343 -19.52,17.293 -5.53,3.89 -10.37,-4.192 -6.71,-8.696 2.99,-3.683 6.29,-7.152 9.65,-10.574 -7.61,-1.148 -15.12,-2.551 -22.42,-4.094 -5.99,-1.265 -4.77,-11.671 1.47,-10.875 9.98,1.27 19.83,1.743 29.67,2.016 -4.7,-9.828 -8.85,-19.93 -12.19,-30.422 -3.02,-9.527 11.31,-13.094 14.75,-4.066 3.16,8.269 6.95,16.203 11.07,23.961 6.06,-6.985 12.04,-14.063 18.63,-20.52 4.97,-4.863 14.11,1.559 9.94,7.668 -5.87,8.59 -12.96,16.289 -20.2,23.777 11.11,0.008 22.23,-0.046 33.49,0.274 6.85,0.199 8.94,10.961 1.68,12.434"
               style="fill:#ffffff;fill-opacity:1;fill-rule:nonzero;stroke:none"
               id="path84" /><path
               d="m 103.348,2046.31 c -9.3363,6.02 -19.1839,11.82 -29.1019,17.57 21.0547,26.87 48.9179,46.26 80.6369,63.26 35.734,19.16 14.379,70.51 -24.422,58 -47.0938,-15.19 -87.5352,-48.99 -115.0235,-90.42 -21.97266,10.47 -44.4922,20.34 -67.4727,29.02 5.0274,19.48 7.4649,39.67 7.5118,59.7 0.0507,20.17 -2.5274,39.99 -7.3985,59.54 -1.8437,7.38 -3.8906,14.63 -6.2578,21.86 -0.9219,2.82 -1.8359,7.76 -2.7305,11.91 0.0938,0.44 0.2461,0.85 0.3243,1.3 0.1992,1.14 0.3984,2.29 0.5976,3.43 3.6953,21.15 -16.3125,34.91 -34.875,34.04 -1.5781,-0.07 -3.1562,-0.15 -4.7383,-0.22 -14.1644,-0.66 -23.9144,-14.36 -26.2894,-26.93 -3.328,-17.6 6.371,-30.81 12.762,-46.66 12.274,-30.43 18.6759,-64.37 14.7267,-97.18 -0.1875,-1.58 -0.5235,-3.06 -0.7618,-4.61 -31.2339,9.67 -62.4879,17.46 -92.7539,22.29 -18.727,2.98 -31.586,-25.18 -14.582,-35.79 27.078,-16.9 55.445,-31.14 84.309,-44.45 -24.36,-34.48 -64.079,-56.26 -108.11,-66.01 -12.344,-2.74 -11.457,-18.4 0.258,-21.27 58.496,-14.34 117.523,20.37 150.668,68.14 1.8945,-0.83 3.7812,-1.66 5.6758,-2.49 19.9609,-8.75 39.8008,-18.2 59.7304,-27.48 -14.707,-47.28 -17.8789,-106.37 14.816456,-143.2 10.378944,-11.69 26.289044,-5.95 29.835944,8.21 9.1484,36.52 4.7852,72.94 14.4492,109.12 9.7305,-3.86 19.5078,-7.55 29.4063,-10.83 29.2659,-9.71 58.1409,31.23 28.8089,50.15"
               style="fill:#ef9025;fill-opacity:1;fill-rule:nonzero;stroke:none"
               id="path86" /><path
               d="m 292.617,837.324 c -5.012,9.867 -12,18.555 -20.054,26.289 -7.153,-4.621 -14.008,-9.664 -20.227,-15.601 -23.578,-24.102 -17.969,-42.489 16.836,-55.164 25.633,0.617 33.414,24.84 23.445,44.476 z m -80.679,-87.273 c -53.942,42.672 -34.145,106.824 8.699,144.804 -4.699,1.665 -9.414,3.153 -14.098,4.344 -42.125,10.742 -87.648,0.578 -124.8671,-20.461 -33.6367,-19.011 -48.9414,-46.422 -74.62893,-72.711 -10.5625,-10.808 -26.24217,-1.781 -27.60937,11.438 -9.1602,88.687 116.332,144.344 188.3284,146.269 77.707,2.082 174.082,-48.402 188.59,-131.574 12.773,-73.219 -87.5,-127.133 -144.414,-82.109"
               style="fill:#3baa9a;fill-opacity:1;fill-rule:nonzero;stroke:none"
               id="path88" /><path
               d="m 73.0703,637.191 c 1.8008,5.297 5.1758,10.305 10.4805,14.368 12.9375,7.886 22.6912,18.742 29.2582,32.57 -8.145,32.801 -23.977,42.394 -47.4965,28.777 C 45.9297,699.148 48.3789,669.48 59.4727,652.133 63.25,646.219 67.8828,641.316 73.0703,637.191 Z M 366.918,709.684 C 338.254,553.125 17.418,470.828 -10.8398,665.086 c -10.3086,70.891 60,138.414 129.6678,103.457 64.449,-32.344 56.606,-106.32 13.238,-149.465 11.719,-0.305 23.336,0.641 33.848,2.309 73.828,11.699 116.399,59.961 168.391,107.281 15.031,13.68 36.09,0 32.613,-18.984"
               style="fill:#3baa9a;fill-opacity:1;fill-rule:nonzero;stroke:none"
               id="path90" /><path
               d="m 268.281,139.48 c -24.605,-5.085 -50.82,7.59 -75.226,1.223 -13.797,-3.598 -23.399,-20.445 -12.184,-32.66 3.692,-4.023 7.871,-7.184 12.234,-10.0274 -29.375,-20.4531 -43.535,-21.3867 -57.769,13.9804 -9.363,23.266 -14.723,47.984 -24.27,71.258 -14.1168,34.402 -38.3746,83.465 -76.9957,96.156 -52.1797,17.149 -88.7891,-29.246 -101.75,-77.547 -7.2812,6.18 -15.2617,11.223 -24.2344,14.278 -42.7969,14.558 -73.0819,-12.688 -84.9259,-48.118 -5.59,3.739 -11.836,6.555 -19.015,7.942 -60.946,11.742 -80.598,-62.723 -55.403,-105.3791 5.742,-9.7265 24.852,-10.2929 24.778,4.0938 -0.09,17.2305 -8.829,56.2423 25.917,41.4183 9.61,-4.098 22.286,-43.6253 27.071,-53.6136 18.59,-38.8008 34.965,-78.4532 50.457,-118.5742 10.801,-27.9766 46.3709,-19.6915 57.5819,2.0507 0.6523,1.2618 1.3008,2.5235 1.9492,3.7813 5.7305,11.1094 -0.1289,23.3242 -7.8359,31.5351 -18.875,43.4766 -39.7772,86.0469 -62.9732,127.3947 -2.347,4.183 -4.687,8.598 -7.085,13.074 1.589,22.082 5.183,50.457 39.718,37.535 12.6527,-4.734 26.1644,-40.883 33.262,-53.609 C -48.2383,69.4844 -34.2695,30.8242 -15.9102,-6.13281 -1.90625,-34.3203 48.7773,-22.6055 39.7852,10.7188 27.5977,55.8789 4.97656,97.4063 -19.6953,136.941 c -4.9961,8.012 -10.2695,16.883 -15.957,25.766 5.039,21.496 14.625,47.395 32.46089,57.145 C 31.7305,238.941 45.8281,190.348 54.9258,167.387 69.457,130.703 72.3398,88.5195 93.7617,54.7266 121.449,11.0547 164.371,7.83984 200.145,29.2656 c 3.371,-8.1758 9.539,-15.2617 17.171,-19.1367 17.364,-8.8164 34.668,-3.15234 47.039,11.0742 15.766,18.1367 26.575,42.0235 38.598,62.7617 14.242,24.5622 -2.43,62.1762 -34.672,55.5152"
               style="fill:#9a135e;fill-opacity:1;fill-rule:nonzero;stroke:none"
               id="path92" /><path
               d="m -2.60938,1397.17 c -3.75,-0.18 -6.95312,-1.6 -9.44142,-3.84 -2.918,2.87 -5.8633,5.7 -8.6719,8.71 6.0157,-1.77 12.06254,-3.38 18.11332,-4.87 z m 135.22238,20.45 c -0.976,0.82 -2.054,1.51 -3.195,2.1 3.715,2.77 7.359,5.66 11.141,8.32 -2.61,-3.5 -5.321,-6.93 -7.946,-10.42 z m 119.559,-48.31 c -37.383,2.03 -74.109,6.57 -110.746,13.41 21.238,27.97 42.035,56.23 62.133,85.06 8.496,12.18 -7.614,24.77 -18.965,18.96 -32.008,-16.36 -61.074,-35.9 -88.3792,-58.56 -5.4453,33.48 -10.8867,66.96 -16.3671,100.44 -2.1758,13.26 -22.9024,12.24 -25.8164,0 -5.629,-23.66 -8.0391,-72.23 -21.9805,-92.42 -18.3164,-26.52 -60.7656,-3.81 -85.4414,2.54 -10.211,2.63 -21.4649,-9.4 -14.6641,-19.08 23.8242,-33.93 52.4414,-59.82 88.1992,-77.93 -3.4765,-3.67 -6.3554,-7.65 -8.6836,-12.11 -21.08981,-21.52 -41.9609,-43.27 -62.8945,-64.94 -10.3359,-10.69 -0.125,-31.61 15.2813,-26.25 18.539,6.46 37.078081,12.91 55.6171,19.37 30.8165,10.73 34.543,15.21 61.1055,-5.21 26.5777,-20.44 52.5317,-38.16 82.9217,-52.87 14.375,-6.96 28.625,7.07 21.524,21.53 -10.825,22.05 -47.508,68.85 -30.5,90.64 12.136,15.55 81.699,23.3 101.605,28.24 16.817,4.17 12.328,28.3 -3.949,29.18"
               style="fill:#ffffff;fill-opacity:1;fill-rule:nonzero;stroke:none"
               id="path94" /><path
               d="m 2911.3,2782.5 c -24.6,-5.08 -50.82,7.59 -75.22,1.23 -13.8,-3.6 -23.4,-20.45 -12.19,-32.67 3.69,-4.02 7.87,-7.18 12.24,-10.02 -29.38,-20.45 -43.54,-21.39 -57.77,13.98 -9.36,23.26 -14.73,47.98 -24.27,71.26 -14.12,34.4 -38.37,83.46 -77,96.15 -52.18,17.15 -88.79,-29.24 -101.75,-77.55 -7.28,6.19 -15.26,11.23 -24.23,14.28 -42.8,14.56 -73.08,-12.68 -84.93,-48.11 -5.59,3.73 -11.83,6.55 -19.01,7.93 -60.95,11.75 -80.6,-62.72 -55.4,-105.37 5.74,-9.73 24.84,-10.29 24.77,4.09 -0.09,17.23 -8.83,56.25 25.92,41.42 9.61,-4.1 22.29,-43.62 27.07,-53.61 18.59,-38.8 34.96,-78.46 50.46,-118.58 10.8,-27.97 46.37,-19.69 57.58,2.05 0.65,1.26 1.3,2.52 1.95,3.78 5.73,11.11 -0.13,23.33 -7.84,31.54 -18.87,43.48 -39.77,86.05 -62.97,127.39 -2.35,4.19 -4.69,8.6 -7.09,13.08 1.59,22.08 5.19,50.46 39.72,37.54 12.66,-4.74 26.17,-40.89 33.26,-53.61 20.18,-36.19 34.15,-74.86 52.51,-111.81 14.01,-28.19 64.69,-16.47 55.7,16.85 -12.19,45.16 -34.81,86.69 -59.48,126.22 -5,8.01 -10.27,16.89 -15.96,25.77 5.04,21.5 14.63,47.4 32.46,57.14 34.92,19.09 49.02,-29.5 58.12,-52.46 14.53,-36.68 17.41,-78.87 38.84,-112.66 27.68,-43.67 70.6,-46.89 106.38,-25.46 3.37,-8.18 9.54,-15.27 17.17,-19.14 17.36,-8.82 34.67,-3.15 47.04,11.08 15.76,18.13 26.57,42.02 38.6,62.76 14.24,24.56 -2.44,62.17 -34.68,55.51"
               style="fill:#9a135e;fill-opacity:1;fill-rule:nonzero;stroke:none"
               id="path96" /><path
               d="m 920.914,2446.54 c -3.383,3.54 -6.66,7.22 -9.797,11.09 -3.742,-3.57 -8.5,-6.13 -13.75,-6.7 -15.695,-1.7 -42.773,-0.96 -49.844,-19.09 -4.925,-12.65 3.907,-29.77 15.75,-35.21 18.262,-8.38 40.887,3.8 50.157,19.69 5.554,9.52 7.074,19.76 7.484,30.22 z m 168.536,-171.29 c -7.13,-1.08 -14.21,-0.58 -20.95,1.06 -1.16,-0.11 -2.35,-0.17 -3.62,-0.09 -46.02,2.85 -67.224,48.54 -61.33,90.73 9.13,65.41 62.63,119.75 85.39,180.62 12.5,33.44 18.84,85.42 -19.62,106.51 -39.65,21.75 -97.781,-20.19 -120.418,-49.94 -30.226,-39.71 -7.964,-73.87 4.442,-110.7 0.101,-0.1 0.215,-0.13 0.312,-0.23 33.27,-32.01 21.309,-92.26 -8.008,-122.96 -29.418,-30.81 -80.066,-40.95 -116.621,-16.85 -33.086,21.81 -47.754,68.63 -28.941,104.42 16.359,31.13 52.68,45.86 85.996,40.24 -17.223,37.66 -21.699,80.8 -2.914,117.27 29.332,56.94 107.77,103.41 172.312,94.17 61.84,-8.87 91.37,-72 86.16,-129.27 -3.57,-39.21 -19.79,-74.48 -36.46,-109.63 -13.75,-28.98 -49.84,-79.76 -48.89,-117.99 3.85,-3.46 5.9,-8.65 3.79,-14.74 -0.24,-0.68 -0.33,-1.36 -0.47,-2.04 2.86,-6.88 7.71,-12.98 14.99,-18.05 7.64,0.19 13.99,6.92 18.1,12.8 13.46,19.24 9.21,45.46 8.2,67.51 -1.73,37.96 58.18,38.03 59.06,0 1.14,-49.23 -12.04,-114.01 -70.51,-122.84"
               style="fill:#47bcd7;fill-opacity:1;fill-rule:nonzero;stroke:none"
               id="path98" /><path
               d="m 2198.35,2633.11 c 0.44,1.43 0.69,2.91 0.77,4.41 l 12.23,-2.75 c -4.36,-0.5 -8.69,-1.05 -13,-1.66 z m -102.29,-31.63 -3.25,-4.88 c 2.31,4.84 4.63,9.68 6.94,14.53 1.22,-1.47 2.43,-2.96 3.61,-4.46 -2.85,-0.74 -5.5,-2.5 -7.3,-5.19 z m -42.03,44.09 c 0.22,0.24 0.36,0.5 0.55,0.75 0.89,-2.83 1.7,-5.67 2.45,-8.52 -6.49,-0.39 -12.97,-0.89 -19.43,-1.51 2.98,1.55 5.88,3.19 8.89,4.69 3.2,-1.85 7.59,0.17 7.54,4.59 z m 229.25,-4.1 c -37.54,8.55 -75.08,17.1 -112.62,25.65 11.71,21.9 23.41,43.79 35.15,65.67 5.08,9.46 -5.7,22.53 -15.69,15.69 -14.75,-10.09 -29.54,-20.04 -44.63,-29.61 -8.27,-5.24 -36.05,-27.13 -45.84,-27.72 -25.23,-1.54 -57.58,50.68 -72.59,68.47 -7.63,9.05 -22.53,-0.65 -19.4,-11.29 8.53,-28.94 18.16,-57.45 28.96,-85.57 -28.16,-13.88 -54.95,-29.36 -80.91,-47.08 -7.6,-5.19 -8.18,-20.1 2.86,-21.93 27.35,-4.54 53.9,-6.33 81.29,-5.47 -5.87,-26.32 -5.87,-50.43 -0.27,-78.35 2.07,-10.26 15.72,-10.2 20.75,-2.72 l 47.21,70.24 c 21.07,-22.05 39.65,-45.58 55.83,-71.8 6.45,-10.46 24.36,-3.83 20.4,8.6 -7.04,22.13 -31.58,72.17 -16.98,89.84 6.08,7.36 49.78,6.81 58.23,7.95 19.41,2.63 38.83,5.24 58.25,7.86 11.15,1.51 10.16,19.26 0,21.57"
               style="fill:#ffffff;fill-opacity:1;fill-rule:nonzero;stroke:none"
               id="path100" /><path
               d="m 1433.92,2683.28 c -22.12,8.31 -45.02,13.33 -68.22,15.86 8.81,9.85 18.2,19.2 28.37,27.81 10.02,8.48 -5.28,24.23 -14.54,14.54 -12.23,-12.79 -23.73,-26 -34.33,-39.83 -11.67,13.71 -23.31,27.45 -35.3,40.9 -1.38,1.55 -3.45,-0.68 -2.23,-2.24 10.08,-12.9 20.17,-25.89 29.86,-39.14 -19.34,0.44 -38.77,-0.78 -58.03,-3.41 -7.28,-0.99 -5.64,-13.68 1.75,-12.95 17.81,1.76 35.15,1.89 52.23,0.72 -9.04,-13.23 -17.23,-27.08 -24.27,-41.83 -3.71,-7.76 7.2,-14.45 11.68,-6.83 9.2,15.61 19.26,30.67 30.33,44.9 0.35,-0.5 0.71,-0.99 1.05,-1.5 11.31,-16.92 20.77,-35.56 33.6,-51.33 5.58,-6.86 16.71,2 12.15,9.37 -9.86,15.96 -23.49,29.96 -36.13,44.08 22.49,-3.48 44.74,-9.07 67.22,-16.58 11.18,-3.73 15.56,13.43 4.81,17.46"
               style="fill:#ffffff;fill-opacity:1;fill-rule:nonzero;stroke:none"
               id="path102" /><path
               d="m 268.281,2782.5 c -24.605,-5.08 -50.82,7.59 -75.226,1.23 -13.797,-3.6 -23.399,-20.45 -12.184,-32.67 3.692,-4.02 7.871,-7.18 12.234,-10.02 -29.375,-20.45 -43.535,-21.39 -57.769,13.98 -9.363,23.26 -14.723,47.98 -24.27,71.26 -14.1168,34.4 -38.3746,83.46 -76.9957,96.15 -52.1797,17.15 -88.7891,-29.24 -101.75,-77.55 -7.2812,6.19 -15.2617,11.23 -24.2344,14.28 -42.7969,14.56 -73.0819,-12.68 -84.9259,-48.11 -5.59,3.73 -11.836,6.55 -19.015,7.93 -60.946,11.75 -80.598,-62.72 -55.403,-105.37 5.742,-9.73 24.852,-10.29 24.778,4.09 -0.09,17.23 -8.829,56.25 25.917,41.42 9.61,-4.1 22.286,-43.62 27.071,-53.61 18.59,-38.8 34.965,-78.46 50.457,-118.58 10.801,-27.97 46.3709,-19.69 57.5819,2.05 0.6523,1.26 1.3008,2.52 1.9492,3.78 5.7305,11.11 -0.1289,23.33 -7.8359,31.54 -18.875,43.48 -39.7772,86.05 -62.9732,127.39 -2.347,4.19 -4.687,8.6 -7.085,13.08 1.589,22.08 5.183,50.46 39.718,37.54 12.6527,-4.74 26.1644,-40.89 33.262,-53.61 20.1797,-36.19 34.1485,-74.86 52.5078,-111.81 14.00395,-28.19 64.6875,-16.47 55.6954,16.85 -12.1875,45.16 -34.80864,86.69 -59.4805,126.22 -4.9961,8.01 -10.2695,16.89 -15.957,25.77 5.039,21.5 14.625,47.4 32.46089,57.14 34.92191,19.09 49.01951,-29.5 58.11721,-52.46 14.5312,-36.68 17.414,-78.87 38.8359,-112.66 27.6873,-43.67 70.6093,-46.89 106.3833,-25.46 3.371,-8.18 9.539,-15.27 17.171,-19.14 17.364,-8.82 34.668,-3.15 47.039,11.08 15.766,18.13 26.575,42.02 38.598,62.76 14.242,24.56 -2.43,62.17 -34.672,55.51"
               style="fill:#9a135e;fill-opacity:1;fill-rule:nonzero;stroke:none"
               id="path104" /></g></g></g></pattern></defs><sodipodi:namedview
     pagecolor="#ffffff"
     bordercolor="#666666"
     borderopacity="1"
     objecttolerance="10"
     gridtolerance="10"
     guidetolerance="10"
     inkscape:pageopacity="0"
     inkscape:pageshadow="2"
     inkscape:window-width="640"
     inkscape:window-height="480"
     id="namedview4" /><g
     id="g10"
     inkscape:groupmode="layer"
     inkscape:label="ink_ext_XXXXXX"
     transform="matrix(1.3333333,0,0,-1.3333333,0,666.66667)"><g
       id="g12"
       transform="scale(0.1)"><path
         d="M 5000,0 H 0 V 5000 H 5000 V 0"
         style="fill:url(#pattern112);fill-opacity:1;fill-rule:nonzero;stroke:none"
         id="path114" /><path
         d="m 2601.04,345.34 c -4.32,-4.418 -8.03,-9.301 -11.08,-14.531 l -4.66,2.41 c -0.66,2.98 -3.48,5.031 -6.58,4.672 -3.31,-0.391 -5.68,-3.391 -5.29,-6.7 0.39,-3.312 3.39,-5.679 6.7,-5.293 0.65,0.082 1.27,0.262 1.83,0.532 l 4.51,-2.348 c -2.51,-5.543 -4.32,-11.383 -5.39,-17.441 l 7.46,-1.309 c 2.31,13.059 8.5,25.059 17.92,34.719 l -5.42,5.289"
         style="fill:#ffffff;fill-opacity:1;fill-rule:nonzero;stroke:none"
         id="path116" /><path
         d="m 2655.92,368.371 c -1.71,0 -3.41,-0.07 -5.1,-0.18 l -0.73,6.258 c 1.87,1.5 2.96,3.903 2.65,6.449 -0.45,3.934 -4.02,6.754 -7.95,6.293 -3.93,-0.472 -6.74,-4.031 -6.28,-7.961 0.3,-2.539 1.89,-4.609 4.05,-5.64 l 0.73,-6.238 c -7.14,-1.161 -14.03,-3.321 -20.59,-6.461 l 3.27,-6.84 c 9.33,4.48 19.41,6.73 29.95,6.73 4.96,0 9.93,-0.531 14.74,-1.57 l 1.62,7.41 c -5.36,1.149 -10.85,1.75 -16.36,1.75"
         style="fill:#ffffff;fill-opacity:1;fill-rule:nonzero;stroke:none"
         id="path118" /><path
         d="m 2721.94,342.891 c 3.31,0.41 5.67,3.418 5.26,6.73 -0.4,3.309 -3.42,5.649 -6.72,5.25 -3.1,-0.379 -5.35,-3.031 -5.3,-6.082 l -4.16,-3.629 c -4.18,4.289 -8.9,8.121 -14.09,11.379 l -4.03,-6.398 c 11.34,-7.149 20.21,-17.27 25.64,-29.262 l 6.9,3.121 c -2.51,5.551 -5.67,10.73 -9.42,15.449 l 4.02,3.52 c 0.6,-0.129 1.25,-0.16 1.9,-0.078"
         style="fill:#ffffff;fill-opacity:1;fill-rule:nonzero;stroke:none"
         id="path120" /><path
         d="m 2650.44,266.281 c -3.86,-0.242 -7.74,-0.34 -11.57,-0.34 -8.8,0 -17.33,0.598 -24.78,1.778 -3.9,0.633 -8.46,1.562 -12.7,2.922 10.46,-18.602 30.69,-31.25 53.88,-31.25 28.56,0 52.62,19.16 59.5,45.039 -6.82,-4.489 -15.06,-8.25 -24.59,-11.231 -11.79,-3.668 -25.54,-6.058 -39.74,-6.918"
         style="fill:#ffffff;fill-opacity:1;fill-rule:nonzero;stroke:none"
         id="path122" /><path
         d="m 2681.7,297.141 c -7.5,0 -13.6,6.101 -13.6,13.601 0,7.5 6.1,13.61 13.6,13.61 7.5,0 13.6,-6.11 13.6,-13.61 0,-7.5 -6.1,-13.601 -13.6,-13.601 z m -47.37,-9.082 c -10.21,0 -18.5,8.3 -18.5,18.492 0,10.211 8.29,18.5 18.5,18.5 10.19,0 18.49,-8.289 18.49,-18.5 0,-10.192 -8.3,-18.492 -18.49,-18.492 z m 21.59,65.14 c -33.53,0 -60.79,-26.66 -60.79,-59.429 0,-4.258 0.46,-8.489 1.36,-12.622 6.74,-4.816 27.06,-8.886 53.48,-7.296 28.79,1.73 52.97,9.57 66.72,21.578 -0.05,1.949 -0.21,3.91 -0.45,5.82 -3.8,29.621 -29.74,51.949 -60.32,51.949"
         style="fill:#ffffff;fill-opacity:1;fill-rule:nonzero;stroke:none"
         id="path124" /><path
         d="m 2815.96,334.531 c -2.95,1.16 -8.06,3.09 -13.83,2.367 -5.51,-0.679 -8.44,-3.386 -8.44,-10.058 v -8.66 h 22.28 v -17.168 h -22.28 v -54.551 h -19.31 v 54.551 h -13.4 v 17.168 h 13.4 v 8.879 c 0,16.812 8.95,27.832 25.68,27.832 6.42,0 11.57,-1.219 15.9,-3.082 v -17.278"
         style="fill:#ffffff;fill-opacity:1;fill-rule:nonzero;stroke:none"
         id="path126" /><path
         d="m 2862.98,301.211 c -1.77,0.301 -3.58,0.469 -5.27,0.469 -8.95,0 -15.09,-5.481 -15.09,-16.141 v -39.078 h -19.32 v 71.719 h 18.73 v -7.848 c 4.51,6.738 11.4,9.777 20.21,9.777 4.14,0 8.47,-1.277 10.93,-3.367 l -10.19,-15.531"
         style="fill:#ffffff;fill-opacity:1;fill-rule:nonzero;stroke:none"
         id="path128" /><path
         d="m 2888.51,289.09 h 31.75 c -1.77,9.18 -7.33,14.359 -15.62,14.359 -9.1,0 -14.43,-5.469 -16.13,-14.359 z m 51.14,-6.66 c 0,-2.219 -0.15,-4.879 -0.37,-6.508 h -50.84 c 2.07,-10.363 9.32,-14.883 18.43,-14.883 6.21,0 12.94,2.512 18.13,6.883 l 11.32,-12.43 c -8.14,-7.472 -18.51,-10.883 -30.57,-10.883 -21.98,0 -37.22,14.95 -37.22,37.532 0,22.57 14.8,37.968 36.26,37.968 20.65,0 34.79,-15.32 34.86,-37.679"
         style="fill:#ffffff;fill-opacity:1;fill-rule:nonzero;stroke:none"
         id="path130" /><path
         d="m 2965.04,289.09 h 31.76 c -1.78,9.18 -7.34,14.359 -15.63,14.359 -9.1,0 -14.43,-5.469 -16.13,-14.359 z m 51.14,-6.66 c 0,-2.219 -0.14,-4.879 -0.37,-6.508 h -50.84 c 2.07,-10.363 9.32,-14.883 18.43,-14.883 6.21,0 12.95,2.512 18.13,6.883 l 11.32,-12.43 c -8.13,-7.472 -18.5,-10.883 -30.56,-10.883 -21.99,0 -37.23,14.95 -37.23,37.532 0,22.57 14.8,37.968 36.26,37.968 20.65,0 34.79,-15.32 34.86,-37.679"
         style="fill:#ffffff;fill-opacity:1;fill-rule:nonzero;stroke:none"
         id="path132" /><path
         d="m 3042.87,282.352 c 0,-11.313 7.48,-19.75 18.43,-19.75 11.4,0 18.5,8.808 18.5,19.75 0,10.957 -7.1,19.769 -18.5,19.769 -10.95,0 -18.43,-8.441 -18.43,-19.769 z m 56.77,0 c 0,-21.532 -14.95,-37.743 -34.71,-37.743 -9.63,0 -16.43,3.782 -21.09,9.332 v -37.082 h -19.25 V 318.18 h 18.88 v -7.918 c 4.66,5.84 11.54,9.847 21.38,9.847 19.84,0 34.79,-16.207 34.79,-37.757"
         style="fill:#ffffff;fill-opacity:1;fill-rule:nonzero;stroke:none"
         id="path134" /><path
         d="m 3128.09,246.461 h -19.32 v 71.719 h 19.32 z m 2.58,95.18 c 0,-6.95 -5.4,-12.282 -12.35,-12.282 -6.96,0 -12.29,5.332 -12.29,12.282 0,6.961 5.33,12.429 12.29,12.429 6.95,0 12.35,-5.468 12.35,-12.429"
         style="fill:#ffffff;fill-opacity:1;fill-rule:nonzero;stroke:none"
         id="path136" /><path
         d="m 3160.32,292.652 27.01,25.528 h 23.7 l -34.8,-33.75 35.01,-37.969 h -23.76 l -27.16,29.019 v -29.019 h -19.31 v 106.578 h 19.31 v -60.387"
         style="fill:#ffffff;fill-opacity:1;fill-rule:nonzero;stroke:none"
         id="path138" /><path
         d="m 1844.13,266.301 v 32.078 c -3.96,6.152 -12.46,11.422 -21.24,11.422 -14.21,0 -22.71,-11.711 -22.71,-27.391 0,-15.668 8.5,-27.238 22.71,-27.238 8.78,0 17.28,4.98 21.24,11.129 z m 0,-19.192 v 10.551 c -5.28,-7.18 -13.92,-12.308 -23.88,-12.308 -18.46,0 -31.5,14.058 -31.5,37.058 0,22.559 12.9,37.211 31.5,37.211 9.52,0 18.16,-4.691 23.88,-12.449 v 37.637 h 10.98 v -97.7 h -10.98"
         style="fill:#ffffff;fill-opacity:1;fill-rule:nonzero;stroke:none"
         id="path140" /><path
         d="m 1904.03,310.539 c -15.08,0 -22.56,-12.75 -23.14,-23.59 h 46.43 c -0.14,10.551 -7.17,23.59 -23.29,23.59 z m -34.71,-27.98 c 0,20.511 14.64,37.062 34.86,37.062 21.39,0 33.98,-16.699 33.98,-37.941 v -2.778 h -57.27 c 0.88,-13.332 10.25,-24.472 25.49,-24.472 8.05,0 16.26,3.23 21.82,8.941 l 5.28,-7.18 c -7.03,-7.031 -16.56,-10.839 -28.13,-10.839 -20.95,0 -36.03,15.089 -36.03,37.207"
         style="fill:#ffffff;fill-opacity:1;fill-rule:nonzero;stroke:none"
         id="path142" /><path
         d="m 1946.07,256.48 5.71,7.911 c 4.69,-5.422 13.63,-10.102 23.29,-10.102 10.84,0 16.7,5.121 16.7,12.16 0,17.133 -43.8,6.59 -43.8,32.813 0,10.976 9.53,20.359 26.37,20.359 12.01,0 20.51,-4.539 26.22,-10.25 l -5.13,-7.621 c -4.24,5.121 -12.01,8.93 -21.09,8.93 -9.67,0 -15.67,-4.828 -15.67,-11.129 0,-15.531 43.79,-5.27 43.79,-32.809 0,-11.871 -9.52,-21.39 -27.83,-21.39 -11.57,0 -21.38,3.519 -28.56,11.128"
         style="fill:#ffffff;fill-opacity:1;fill-rule:nonzero;stroke:none"
         id="path144" /><path
         d="m 2016.67,247.109 v 70.75 h 10.99 v -70.75 z m -1.9,88.18 c 0,4.102 3.37,7.473 7.32,7.473 4.11,0 7.47,-3.371 7.47,-7.473 0,-4.098 -3.36,-7.32 -7.47,-7.32 -3.95,0 -7.32,3.222 -7.32,7.32"
         style="fill:#ffffff;fill-opacity:1;fill-rule:nonzero;stroke:none"
         id="path146" /><path
         d="m 2097.08,267.469 v 30.91 c -3.8,6.152 -12.3,11.422 -21.08,11.422 -14.22,0 -22.71,-11.27 -22.71,-26.949 0,-15.532 8.49,-26.954 22.71,-26.954 8.78,0 17.28,5.422 21.08,11.571 z m -51.26,-38.52 5.57,8.199 c 5.86,-7.027 12.89,-9.668 22.99,-9.668 11.72,0 22.7,5.711 22.7,21.239 v 10.113 c -5.12,-7.184 -13.76,-12.602 -23.73,-12.602 -18.45,0 -31.48,13.77 -31.48,36.622 0,22.707 12.88,36.769 31.48,36.769 9.53,0 18.03,-4.691 23.73,-12.449 v 10.687 h 10.99 V 249.16 c 0,-23.441 -16.4,-30.762 -33.69,-30.762 -12.01,0 -20.21,2.344 -28.56,10.551"
         style="fill:#ffffff;fill-opacity:1;fill-rule:nonzero;stroke:none"
         id="path148" /><path
         d="m 2174.13,247.109 v 46.289 c 0,12.454 -6.29,16.403 -15.81,16.403 -8.65,0 -16.86,-5.27 -20.95,-10.981 v -51.711 h -10.99 v 70.75 h 10.99 v -10.25 c 4.98,5.86 14.64,12.012 25.19,12.012 14.79,0 22.56,-7.473 22.56,-22.851 v -49.661 h -10.99"
         style="fill:#ffffff;fill-opacity:1;fill-rule:nonzero;stroke:none"
         id="path150" /><path
         d="m 2234.04,310.539 c -15.08,0 -22.56,-12.75 -23.14,-23.59 h 46.43 c -0.15,10.551 -7.18,23.59 -23.29,23.59 z m -34.71,-27.98 c 0,20.511 14.64,37.062 34.86,37.062 21.38,0 33.98,-16.699 33.98,-37.941 v -2.778 h -57.27 c 0.88,-13.332 10.25,-24.472 25.49,-24.472 8.05,0 16.25,3.23 21.82,8.941 l 5.28,-7.18 c -7.03,-7.031 -16.56,-10.839 -28.13,-10.839 -20.95,0 -36.03,15.089 -36.03,37.207"
         style="fill:#ffffff;fill-opacity:1;fill-rule:nonzero;stroke:none"
         id="path152" /><path
         d="m 2333.5,266.301 v 32.078 c -3.96,6.152 -12.45,11.422 -21.24,11.422 -14.21,0 -22.7,-11.711 -22.7,-27.391 0,-15.668 8.49,-27.238 22.7,-27.238 8.79,0 17.28,4.98 21.24,11.129 z m 0,-19.192 v 10.551 c -5.27,-7.18 -13.92,-12.308 -23.88,-12.308 -18.45,0 -31.49,14.058 -31.49,37.058 0,22.559 12.89,37.211 31.49,37.211 9.52,0 18.17,-4.691 23.88,-12.449 v 37.637 h 10.99 v -97.7 h -10.99"
         style="fill:#ffffff;fill-opacity:1;fill-rule:nonzero;stroke:none"
         id="path154" /><path
         d="m 2429,255.172 c 14.35,0 22.85,11.57 22.85,27.238 0,15.68 -8.5,27.391 -22.85,27.391 -8.64,0 -17.29,-5.27 -21.09,-11.422 v -32.078 c 3.8,-6.149 12.45,-11.129 21.09,-11.129 z m -32.08,-8.063 v 97.7 h 10.99 v -37.637 c 5.71,7.758 14.2,12.449 23.87,12.449 18.46,0 31.5,-14.652 31.5,-37.211 0,-23 -13.04,-37.058 -31.5,-37.058 -9.96,0 -18.6,5.128 -23.87,12.308 v -10.551 h -10.99"
         style="fill:#ffffff;fill-opacity:1;fill-rule:nonzero;stroke:none"
         id="path156" /><path
         d="m 2475.28,229.379 c 1.61,-0.731 4.26,-1.168 6.01,-1.168 4.83,0 8.06,1.609 10.55,7.469 l 4.69,10.699 -29.6,71.48 h 11.87 l 23.58,-58.007 23.44,58.007 h 12.01 l -35.45,-85.109 c -4.25,-10.25 -11.42,-14.211 -20.8,-14.352 -2.34,0 -6,0.442 -8.05,1.024 l 1.75,9.957"
         style="fill:#ffffff;fill-opacity:1;fill-rule:nonzero;stroke:none"
         id="path158" /></g></g></svg>
